<svg width="200" height="48" viewBox="0 0 200 48" xmlns="http://www.w3.org/2000/svg">
  <!-- Honey pot -->
  <g>
    <path d="M38 12a22 22 0 0 1 0 24 22 22 0 0 1-30 0 22 22 0 0 1 0-24 22 22 0 0 1 30 0z" fill="#FFB800"/>
    <path d="M23 4c11 0 20 9 20 20s-9 20-20 20S3 35 3 24 12 4 23 4z" fill="#FFD700"/>
    <path d="M23 8c-8.8 0-16 7.2-16 16s7.2 16 16 16 16-7.2 16-16S31.8 8 23 8zm0 28c-6.6 0-12-5.4-12-12s5.4-12 12-12 12 5.4 12 12-5.4 12-12 12z" fill="#FFB800"/>
    <circle cx="28" cy="18" r="2" fill="#FFFFFF"/>
    <!-- Dripping honey -->
    <path d="M23 36c1.1 0 2 .9 2 2v6c0 1.1-.9 2-2 2s-2-.9-2-2v-6c0-1.1.9-2 2-2z" fill="#FFD700"/>
  </g>
  <!-- Text -->
  <text x="60" y="32" font-family="Arial Black, sans-serif" font-size="24" font-weight="900">Landhoney</text>
</svg> 